<svg xmlns="http://www.w3.org/2000/svg" viewBox="0 0 699 240" role="img" aria-labelledby="title desc">
  <title id="title">DBJ Technologies all white logo</title>
  <desc id="desc">White geometric DBJ mark with white DBJ Technologies wordmark.</desc>
  <path d="M 207 104 L 187 93 L 187 155 L 122 195 L 55 156 L 55 94 L 34 105 L 34 166 L 42 172 L 121 219 L 124 219 L 127 216 L 137 211 L 207 166 Z M 91 73 L 71 85 L 71 149 L 91 161 L 93 161 L 93 73 Z M 150 72 L 150 160 L 156 159 L 157 157 L 169 151 L 172 148 L 172 83 L 156 74 Z M 150 30 L 149 32 L 149 52 L 150 54 L 206 89 L 207 88 L 207 64 L 159 35 L 156 32 Z M 130 6 L 126 7 L 123 10 L 34 64 L 34 88 L 36 88 L 76 64 L 108 43 L 110 44 L 110 171 L 121 177 L 130 173 Z" fill="#FFFFFF" fill-rule="evenodd"/>
  <path d="M 662 140 L 658 144 L 658 148 L 661 151 L 671 153 L 673 157 L 671 159 L 665 158 L 664 159 L 658 156 L 658 160 L 662 162 L 673 162 L 677 158 L 676 151 L 665 149 L 664 148 L 665 147 L 664 148 L 662 147 L 662 144 L 672 143 L 675 146 L 677 141 L 676 142 L 672 140 Z M 621 140 L 622 142 L 621 152 L 622 162 L 640 162 L 641 159 L 636 158 L 626 159 L 625 158 L 626 152 L 638 152 L 639 153 L 638 151 L 639 149 L 627 149 L 626 145 L 628 143 L 629 144 L 640 144 L 640 140 Z M 603 140 L 598 140 L 599 141 L 599 161 L 598 162 L 599 163 L 603 162 Z M 483 140 L 483 162 L 503 162 L 502 159 L 488 159 L 487 158 L 487 140 Z M 279 140 L 279 162 L 278 163 L 279 162 L 298 162 L 299 163 L 298 158 L 296 159 L 295 158 L 285 158 L 284 159 L 283 158 L 284 152 L 296 153 L 297 151 L 296 148 L 295 149 L 284 149 L 283 144 L 284 143 L 285 144 L 297 144 L 298 140 Z M 563 141 L 558 146 L 557 149 L 558 153 L 557 156 L 560 158 L 559 159 L 560 158 L 567 163 L 568 162 L 576 163 L 577 161 L 580 161 L 581 159 L 582 160 L 581 159 L 582 149 L 580 150 L 577 148 L 570 149 L 571 152 L 570 153 L 572 152 L 577 153 L 577 157 L 573 159 L 565 158 L 561 151 L 562 147 L 568 143 L 573 144 L 574 143 L 578 146 L 581 142 L 568 139 Z M 523 139 L 516 146 L 515 149 L 516 156 L 518 159 L 523 162 L 534 162 L 535 161 L 536 162 L 539 158 L 540 159 L 539 158 L 543 150 L 541 146 L 534 140 L 529 139 L 524 140 Z M 525 143 L 534 144 L 537 148 L 536 149 L 538 150 L 537 154 L 531 159 L 523 158 L 520 155 L 519 152 L 520 148 Z M 461 141 L 455 139 L 448 141 L 446 140 L 442 144 L 441 155 L 445 160 L 444 161 L 445 160 L 446 162 L 447 161 L 458 162 L 461 161 L 465 157 L 466 148 L 465 145 Z M 446 156 L 447 155 L 448 156 L 447 157 Z M 445 147 L 450 143 L 456 143 L 461 147 L 462 153 L 459 158 L 450 159 L 445 154 Z M 424 139 L 419 140 L 419 152 L 417 154 L 403 140 L 399 140 L 398 142 L 399 144 L 399 163 L 405 162 L 403 158 L 403 148 L 404 147 L 415 158 L 414 159 L 415 158 L 419 162 L 424 163 L 423 162 L 423 140 Z M 417 154 L 418 153 L 419 154 L 418 155 Z M 380 139 L 378 140 L 374 139 L 375 141 L 374 149 L 373 148 L 372 149 L 360 149 L 359 148 L 361 140 L 356 140 L 356 160 L 355 162 L 356 163 L 360 162 L 361 152 L 374 152 L 375 153 L 374 162 L 375 163 L 380 162 L 379 161 L 380 160 L 379 158 L 380 152 L 379 151 L 380 147 L 379 140 Z M 316 144 L 313 150 L 316 159 L 322 162 L 333 162 L 336 160 L 337 161 L 338 158 L 335 155 L 332 158 L 324 159 L 323 157 L 322 158 L 319 155 L 318 152 L 319 147 L 325 143 L 330 143 L 334 145 L 335 147 L 338 142 L 334 141 L 333 139 L 332 140 L 322 139 Z M 240 139 L 242 144 L 241 145 L 243 144 L 244 145 L 245 143 L 250 144 L 250 162 L 255 163 L 254 160 L 255 158 L 254 147 L 255 146 L 254 145 L 263 144 L 263 140 L 241 140 Z M 405 64 L 394 64 L 394 83 L 393 84 L 394 85 L 393 88 L 394 105 L 393 106 L 392 105 L 393 106 L 390 109 L 378 109 L 378 119 L 396 119 L 397 118 L 398 119 L 400 116 L 401 117 L 406 107 L 405 105 Z M 367 70 L 363 66 L 362 67 L 361 65 L 357 63 L 356 64 L 311 64 L 311 119 L 359 119 L 362 117 L 363 118 L 368 110 L 370 109 L 369 107 L 370 100 L 367 96 L 368 95 L 363 92 L 369 83 L 368 82 L 369 75 L 367 74 L 368 72 L 367 73 L 366 72 Z M 354 107 L 355 106 L 356 107 L 355 108 Z M 323 100 L 325 96 L 327 97 L 328 96 L 329 97 L 351 96 L 352 98 L 354 97 L 356 99 L 357 104 L 353 109 L 350 110 L 325 110 L 323 106 L 324 105 Z M 366 95 L 367 94 L 368 95 L 367 96 Z M 365 94 L 366 93 L 367 94 L 366 95 Z M 361 91 L 362 90 L 363 91 L 362 92 Z M 323 75 L 324 74 L 326 75 L 327 74 L 351 74 L 356 78 L 356 82 L 353 86 L 351 85 L 350 87 L 324 87 L 323 86 L 325 82 Z M 365 70 L 366 69 L 367 70 L 366 71 Z M 241 63 L 242 64 L 242 104 L 241 105 L 242 119 L 285 119 L 286 118 L 288 119 L 297 113 L 296 112 L 299 110 L 298 109 L 300 108 L 299 107 L 301 105 L 300 103 L 302 84 L 300 83 L 301 80 L 299 79 L 300 78 L 298 77 L 297 75 L 298 74 L 295 72 L 294 69 L 292 69 L 290 66 L 289 67 L 285 64 L 242 64 Z M 294 114 L 295 113 L 296 114 L 295 115 Z M 295 113 L 296 112 L 297 113 L 296 114 Z M 254 76 L 255 75 L 272 75 L 273 76 L 278 75 L 280 77 L 281 76 L 282 78 L 283 77 L 288 84 L 287 86 L 289 87 L 289 97 L 287 98 L 288 99 L 287 103 L 280 109 L 277 108 L 271 110 L 270 109 L 269 110 L 268 109 L 260 110 L 254 108 Z" fill="#FFFFFF" fill-rule="evenodd"/>
</svg>
