<svg xmlns="http://www.w3.org/2000/svg" viewBox="0 0 174 214" role="img" aria-labelledby="title desc">
  <title id="title">DBJ mark</title>
  <desc id="desc">Cyan geometric DBJ brand mark.</desc>
  <path d="M 173 98 L 153 87 L 153 149 L 88 189 L 21 150 L 21 88 L 0 99 L 0 160 L 8 166 L 87 213 L 90 213 L 93 210 L 103 205 L 173 160 Z M 57 67 L 37 79 L 37 143 L 57 155 L 59 155 L 59 67 Z M 116 66 L 116 154 L 122 153 L 123 151 L 135 145 L 138 142 L 138 77 L 122 68 Z M 116 24 L 115 26 L 115 46 L 116 48 L 172 83 L 173 82 L 173 58 L 125 29 L 122 26 Z M 96 0 L 92 1 L 89 4 L 0 58 L 0 82 L 2 82 L 42 58 L 74 37 L 76 38 L 76 165 L 87 171 L 96 167 Z" fill="#1AD4EA" fill-rule="evenodd"/>
</svg>
