<svg xmlns="http://www.w3.org/2000/svg" viewBox="0 0 699 240" role="img" aria-labelledby="title desc">
  <title id="title">DBJ Technologies all white logo</title>
  <desc id="desc">White geometric DBJ mark with white DBJ Technologies wordmark.</desc>
  <path d="M 207 104 L 187 93 L 187 155 L 122 195 L 55 156 L 55 94 L 34 105 L 34 166 L 42 172 L 121 219 L 124 219 L 127 216 L 137 211 L 207 166 Z M 91 73 L 71 85 L 71 149 L 91 161 L 93 161 L 93 73 Z M 150 72 L 150 160 L 156 159 L 157 157 L 169 151 L 172 148 L 172 83 L 156 74 Z M 150 30 L 149 32 L 149 52 L 150 54 L 206 89 L 207 88 L 207 64 L 159 35 L 156 32 Z M 130 6 L 126 7 L 123 10 L 34 64 L 34 88 L 36 88 L 76 64 L 108 43 L 110 44 L 110 171 L 121 177 L 130 173 Z" fill="#FFFFFF" fill-rule="evenodd"/>
  <path d="M258.27 119L240 119L240 63.00L258.27 63.00Q267.36 63.00 274.05 66.61Q280.74 70.22 284.42 76.53Q288.11 82.84 288.11 90.96L288.11 90.96Q288.11 99.08 284.42 105.43Q280.74 111.78 274.05 115.39Q267.36 119 258.27 119L258.27 119ZM251.65 73.15L251.65 108.85L258.57 108.85Q264.05 108.85 268.04 106.63Q272.02 104.42 274.24 100.40Q276.46 96.37 276.46 90.96L276.46 90.96Q276.46 85.48 274.24 81.49Q272.02 77.51 268.04 75.33Q264.05 73.15 258.57 73.15L258.57 73.15L251.65 73.15ZM319.23 119L295.55 119L295.55 63.00L319.23 63.00Q325.01 63.00 329.15 64.95Q333.28 66.91 335.46 70.55Q337.64 74.20 337.64 79.39L337.64 79.39Q337.64 83.07 335.61 86.38L335.61 86.38Q334.86 87.66 333.73 88.78L333.73 88.78Q334.86 89.53 335.76 90.44L335.76 90.44Q338.17 92.84 339.07 95.66Q339.97 98.48 339.97 101.56L339.97 101.56Q339.97 109.83 334.49 114.41Q329.00 119 319.23 119L319.23 119ZM307.20 94.19L307.20 108.85L320.58 108.85Q324.11 108.85 326.22 106.82Q328.32 104.79 328.32 101.56L328.32 101.56Q328.32 98.25 326.22 96.22Q324.11 94.19 320.58 94.19L320.58 94.19L307.20 94.19ZM307.20 72.77L307.20 84.05L320.05 84.05Q322.76 84.05 324.38 82.51Q325.99 80.97 325.99 78.41Q325.99 75.85 324.38 74.31Q322.76 72.77 320.05 72.77L320.05 72.77L307.20 72.77ZM348.32 119L344.93 119L344.93 108.48L348.32 108.48Q351.70 108.48 353.77 106.56Q355.83 104.64 355.83 101.49L355.83 101.49L355.83 63.00L367.48 63.00L367.48 100.96Q367.48 106.37 365.15 110.43Q362.82 114.49 358.50 116.74Q354.18 119 348.32 119L348.32 119ZM251.08 163L246.09 163L246.09 143.35L240 143.35L240 139L257.07 139L257.07 143.35L251.08 143.35L251.08 163ZM292.00 163L275.86 163L275.86 139L292.00 139L292.00 143.35L280.85 143.35L280.85 148.79L291.36 148.79L291.36 153.14L280.85 153.14L280.85 158.65L292.00 158.65L292.00 163ZM322.55 163.39L322.55 163.39Q319.97 163.39 317.76 162.45Q315.56 161.52 313.91 159.84Q312.27 158.17 311.35 155.91Q310.43 153.66 310.43 150.98L310.43 150.98Q310.43 148.31 311.34 146.04Q312.24 143.77 313.88 142.11Q315.52 140.45 317.73 139.53Q319.94 138.61 322.55 138.61L322.55 138.61Q325.16 138.61 327.23 139.48Q329.31 140.35 330.76 141.80Q332.21 143.25 332.82 145.02L332.82 145.02L328.41 147.15Q327.80 145.41 326.27 144.27Q324.74 143.12 322.55 143.12L322.55 143.12Q320.42 143.12 318.81 144.12Q317.20 145.12 316.31 146.88Q315.43 148.63 315.43 150.98L315.43 150.98Q315.43 153.34 316.31 155.11Q317.20 156.88 318.81 157.88Q320.42 158.88 322.55 158.88L322.55 158.88Q324.74 158.88 326.27 157.73Q327.80 156.59 328.41 154.85L328.41 154.85L332.82 156.98Q332.21 158.75 330.76 160.20Q329.31 161.65 327.23 162.52Q325.16 163.39 322.55 163.39ZM357.31 163L352.32 163L352.32 139L357.31 139L357.31 149.37L366.66 149.37L366.66 139L371.65 139L371.65 163L366.66 163L366.66 153.72L357.31 153.72L357.31 163ZM397.20 163L392.21 163L392.21 139L396.04 139L406.87 153.27L406.87 139L411.86 139L411.86 163L407.99 163L397.20 148.41L397.20 163ZM444.44 163.39L444.44 163.39Q441.73 163.39 439.41 162.45Q437.09 161.52 435.37 159.83Q433.64 158.14 432.68 155.88Q431.71 153.63 431.71 150.98L431.71 150.98Q431.71 148.34 432.66 146.09Q433.61 143.83 435.33 142.16Q437.06 140.48 439.38 139.55Q441.70 138.61 444.44 138.61L444.44 138.61Q447.17 138.61 449.49 139.55Q451.81 140.48 453.54 142.16Q455.26 143.83 456.21 146.09Q457.16 148.34 457.16 150.98L457.16 150.98Q457.16 153.63 456.19 155.88Q455.23 158.14 453.50 159.83Q451.78 161.52 449.46 162.45Q447.14 163.39 444.44 163.39ZM444.44 158.88L444.44 158.88Q446.08 158.88 447.48 158.30Q448.88 157.72 449.94 156.67Q451.01 155.62 451.59 154.17Q452.17 152.72 452.17 150.98L452.17 150.98Q452.17 149.24 451.59 147.81Q451.01 146.38 449.94 145.31Q448.88 144.25 447.48 143.69Q446.08 143.12 444.44 143.12L444.44 143.12Q442.79 143.12 441.39 143.69Q439.99 144.25 438.93 145.31Q437.86 146.38 437.28 147.81Q436.70 149.24 436.70 150.98L436.70 150.98Q436.70 152.72 437.28 154.17Q437.86 155.62 438.93 156.67Q439.99 157.72 441.39 158.30Q442.79 158.88 444.44 158.88ZM492.15 163L477.01 163L477.01 139L482.00 139L482.00 158.65L492.15 158.65L492.15 163ZM522.96 163.39L522.96 163.39Q520.25 163.39 517.93 162.45Q515.61 161.52 513.89 159.83Q512.16 158.14 511.20 155.88Q510.23 153.63 510.23 150.98L510.23 150.98Q510.23 148.34 511.18 146.09Q512.13 143.83 513.85 142.16Q515.58 140.48 517.90 139.55Q520.22 138.61 522.96 138.61L522.96 138.61Q525.69 138.61 528.01 139.55Q530.33 140.48 532.06 142.16Q533.78 143.83 534.73 146.09Q535.68 148.34 535.68 150.98L535.68 150.98Q535.68 153.63 534.71 155.88Q533.75 158.14 532.02 159.83Q530.30 161.52 527.98 162.45Q525.66 163.39 522.96 163.39ZM522.96 158.88L522.96 158.88Q524.60 158.88 526.00 158.30Q527.40 157.72 528.46 156.67Q529.53 155.62 530.11 154.17Q530.69 152.72 530.69 150.98L530.69 150.98Q530.69 149.24 530.11 147.81Q529.53 146.38 528.46 145.31Q527.40 144.25 526.00 143.69Q524.60 143.12 522.96 143.12L522.96 143.12Q521.31 143.12 519.91 143.69Q518.51 144.25 517.45 145.31Q516.38 146.38 515.80 147.81Q515.22 149.24 515.22 150.98L515.22 150.98Q515.22 152.72 515.80 154.17Q516.38 155.62 517.45 156.67Q518.51 157.72 519.91 158.30Q521.31 158.88 522.96 158.88ZM567.06 163.39L567.06 163.39Q564.49 163.39 562.26 162.45Q560.04 161.52 558.37 159.84Q556.69 158.17 555.76 155.91Q554.82 153.66 554.82 150.98Q554.82 148.31 555.72 146.04Q556.63 143.77 558.27 142.11Q559.91 140.45 562.12 139.53Q564.33 138.61 566.93 138.61Q569.54 138.61 571.62 139.48Q573.70 140.35 575.15 141.80Q576.60 143.25 577.21 145.02L577.21 145.02L572.80 147.15Q572.19 145.41 570.66 144.27Q569.13 143.12 566.93 143.12L566.93 143.12Q564.81 143.12 563.20 144.12Q561.59 145.12 560.70 146.88Q559.82 148.63 559.82 150.98Q559.82 153.34 560.75 155.11Q561.68 156.88 563.31 157.88Q564.94 158.88 567.06 158.88L567.06 158.88Q568.71 158.88 570.14 158.25Q571.57 157.62 572.46 156.43Q573.35 155.24 573.35 153.56L573.35 153.56L573.35 153.50L566.93 153.50L566.93 149.31L578.34 149.31L578.34 151.85Q578.34 154.79 577.37 156.96Q576.41 159.13 574.78 160.57Q573.15 162.00 571.14 162.69Q569.13 163.39 567.06 163.39ZM602.73 163L597.74 163L597.74 139L602.73 139L602.73 163ZM639.43 163L623.29 163L623.29 139L639.43 139L639.43 143.35L628.28 143.35L628.28 148.79L638.79 148.79L638.79 153.14L628.28 153.14L628.28 158.65L639.43 158.65L639.43 163ZM667.30 163.39L667.30 163.39Q665.05 163.39 663.07 162.57Q661.09 161.74 659.65 160.23Q658.22 158.72 657.51 156.65L657.51 156.65L661.60 154.82Q662.50 156.78 664.10 157.91Q665.69 159.04 667.63 159.04L667.63 159.04Q668.66 159.04 669.40 158.72Q670.14 158.39 670.56 157.83Q670.98 157.27 670.98 156.49L670.98 156.49Q670.98 155.66 670.46 155.06Q669.94 154.46 668.85 154.11L668.85 154.11L664.15 152.56Q661.28 151.63 659.83 149.90Q658.38 148.18 658.38 145.77L658.38 145.77Q658.38 143.64 659.43 142.03Q660.47 140.42 662.36 139.52Q664.24 138.61 666.69 138.61L666.69 138.61Q668.85 138.61 670.69 139.35Q672.52 140.10 673.86 141.45Q675.20 142.80 675.87 144.70L675.87 144.70L671.81 146.54Q671.14 144.86 669.78 143.91Q668.43 142.96 666.69 142.96L666.69 142.96Q665.69 142.96 664.92 143.28Q664.15 143.61 663.73 144.20Q663.31 144.80 663.31 145.57L663.31 145.57Q663.31 146.41 663.86 147.04Q664.40 147.67 665.50 148.02L665.50 148.02L670.11 149.50Q673.01 150.44 674.44 152.11Q675.87 153.79 675.87 156.20L675.87 156.20Q675.87 158.30 674.78 159.92Q673.68 161.55 671.77 162.47Q669.85 163.39 667.30 163.39Z" fill="#FFFFFF" fill-rule="evenodd"/>
</svg>
